<?xml version="1.0" standalone="no"?>
<!DOCTYPE svg PUBLIC "-//W3C//DTD SVG 20010904//EN"
 "http://www.w3.org/TR/2001/REC-SVG-20010904/DTD/svg10.dtd">
<svg version="1.0" xmlns="http://www.w3.org/2000/svg"
 width="512.000000pt" height="512.000000pt" viewBox="0 0 512.000000 512.000000"
 preserveAspectRatio="xMidYMid meet">
<metadata>
Created by potrace 1.11, written by Peter Selinger 2001-2013
</metadata>
<g transform="translate(0.000000,512.000000) scale(0.100000,-0.100000)"
fill="#000000" stroke="none">
<path d="M2457 4824 c-1 -1 -36 -4 -77 -8 -101 -8 -173 -17 -186 -21 -6 -2
-26 -39 -43 -82 -18 -43 -38 -91 -46 -108 -7 -16 -54 -130 -105 -252 l-92
-221 -46 20 c-26 10 -108 44 -182 75 -74 30 -148 61 -165 68 -16 8 -70 30
-120 50 -49 20 -104 43 -121 50 -30 13 -32 12 -130 -67 -119 -97 -268 -247
-362 -366 l-69 -87 87 -210 c48 -116 110 -265 138 -331 l50 -122 -152 -62
c-83 -35 -169 -71 -191 -80 -22 -9 -98 -41 -170 -70 -72 -30 -135 -60 -141
-67 -38 -45 -49 -510 -17 -683 4 -19 6 -40 5 -47 -4 -16 12 -23 338 -158 157
-64 294 -122 306 -129 20 -11 19 -17 -76 -246 -54 -129 -104 -251 -113 -270
-71 -161 -73 -143 29 -270 115 -143 356 -368 430 -402 17 -8 47 1 145 41 68
29 133 56 144 61 11 5 88 37 170 70 83 34 163 68 179 76 16 8 30 13 32 11 3
-2 109 -256 213 -507 l59 -145 44 -11 c121 -31 507 -36 643 -8 17 4 38 6 48 6
22 -1 24 3 162 338 64 157 122 294 129 306 11 20 20 17 331 -113 176 -73 326
-133 334 -133 22 0 176 125 284 233 109 108 247 273 247 295 0 11 -109 283
-155 387 -8 17 -36 85 -63 152 l-50 121 46 20 c26 11 164 68 307 127 273 113
320 134 312 141 -2 3 -1 24 4 47 26 143 29 484 4 612 -2 11 -4 29 -4 40 -1 11
-5 26 -10 33 -4 7 -127 62 -272 123 -145 60 -292 121 -326 135 l-61 26 14 36
c8 20 19 46 24 57 48 107 230 553 230 563 0 12 -61 92 -134 177 -150 171 -370
361 -411 352 -11 -3 -117 -45 -235 -95 -118 -49 -259 -108 -312 -130 l-96 -40
-126 303 c-70 167 -130 315 -136 329 -12 32 -32 38 -195 52 -70 6 -293 12
-298 8z m219 -571 c7 -5 74 -159 149 -343 76 -184 141 -339 145 -343 6 -7 304
110 606 239 45 18 87 34 93 34 15 0 171 -156 171 -171 0 -9 -35 -94 -183 -449
-5 -14 -11 -29 -13 -35 -2 -5 -21 -54 -44 -109 -23 -54 -38 -102 -33 -106 4
-4 121 -53 258 -110 138 -56 291 -119 340 -140 l90 -38 2 -122 2 -122 -37 -14
c-20 -8 -57 -23 -82 -34 -25 -11 -139 -58 -255 -105 -115 -48 -224 -93 -240
-100 -17 -8 -43 -19 -58 -24 -23 -9 -27 -15 -22 -32 4 -12 68 -167 141 -344
74 -178 134 -328 134 -335 0 -16 -154 -170 -170 -170 -6 0 -75 27 -153 59
-399 166 -539 222 -545 216 -3 -3 -70 -160 -148 -348 l-141 -342 -103 -3
c-126 -4 -142 0 -157 35 -6 15 -28 69 -48 118 -21 50 -43 104 -50 120 -37 85
-95 226 -95 230 0 3 -8 24 -19 48 -10 23 -26 62 -36 87 -10 25 -22 49 -26 54
-6 7 -149 -48 -484 -189 -60 -26 -123 -51 -140 -57 -16 -6 -34 -15 -40 -19
-23 -22 -54 -5 -130 71 l-80 80 19 53 c10 28 26 70 36 92 10 22 50 119 90 215
40 96 78 189 86 205 30 68 54 138 49 143 -3 4 -160 70 -348 148 l-342 141 0
123 0 124 90 36 c50 21 142 58 205 84 63 26 129 53 145 60 17 8 77 33 135 57
58 23 109 45 113 49 7 6 -102 287 -169 435 -32 71 -104 255 -104 265 0 15 139
158 161 165 12 4 138 -44 341 -128 178 -74 333 -137 344 -141 19 -6 25 3 58
81 21 49 41 97 46 108 5 11 52 126 106 255 53 129 98 238 100 241 6 10 227 11
240 2z"/>
<path d="M2491 3552 c-6 -2 -11 -8 -11 -13 0 -9 -16 -48 -50 -124 -5 -11 -30
-72 -56 -135 -26 -63 -50 -119 -54 -123 -4 -5 -96 28 -203 72 -108 45 -200 81
-204 81 -11 0 -103 -90 -103 -100 0 -4 25 -68 56 -141 95 -231 106 -261 98
-268 -5 -4 -94 -43 -199 -86 -104 -43 -192 -82 -196 -86 -6 -10 -5 -137 2
-142 2 -2 51 -23 109 -46 58 -24 123 -51 145 -60 22 -10 60 -26 85 -36 25 -10
49 -22 54 -26 4 -4 -29 -98 -74 -209 l-83 -202 51 -50 51 -51 201 83 c117 48
204 79 209 74 5 -5 44 -94 87 -199 43 -104 79 -192 80 -194 4 -5 142 -7 147
-1 2 3 39 88 81 190 42 102 81 191 86 199 7 12 45 -1 209 -69 200 -82 201 -83
223 -64 34 30 77 78 78 87 0 4 -36 96 -81 204 -44 107 -77 199 -72 202 4 4 33
18 63 30 30 12 64 26 75 31 11 5 49 21 85 35 36 15 84 35 107 46 24 10 47 19
53 19 11 0 12 3 14 83 1 32 -1 62 -4 66 -3 5 -90 44 -195 87 -104 42 -194 81
-199 85 -7 6 21 86 70 194 30 68 84 205 84 214 0 13 -89 101 -102 101 -5 0
-97 -36 -204 -81 -108 -45 -197 -79 -200 -76 -3 3 -32 70 -65 148 -33 79 -66
158 -73 174 -8 17 -17 40 -21 53 -3 12 -9 22 -13 23 -20 3 -132 4 -141 1z
m187 -748 c97 -48 152 -136 152 -244 0 -287 -392 -375 -514 -116 -87 183 41
384 245 385 51 1 76 -5 117 -25z"/>
</g>
</svg>
